<?xml version="1.0" encoding="utf-8"?>
<!-- Generator: Adobe Illustrator 24.0.1, SVG Export Plug-In . SVG Version: 6.00 Build 0)  -->
<svg version="1.1" id="Layer_1" xmlns="http://www.w3.org/2000/svg" xmlns:xlink="http://www.w3.org/1999/xlink" x="0px" y="0px"
	 viewBox="0 0 346.5 64.8" style="enable-background:new 0 0 346.5 64.8;" xml:space="preserve">
<style type="text/css">
	.st0{fill:#7762F9;}
	.st1{font-family:'ProductSans-Bold';}
	.st2{font-size:55.65px;}
	.st3{letter-spacing:-1;}
	.st4{fill:#FFFFFF;}
</style>
<title>Asset 9</title>
<g id="Layer_2_1_">
	<g id="Layer_1-2">
		<path class="st0" d="M52.8,48.1L52.8,48.1c-1.8,1.2-4.2,0.8-5.4-1L24.1,14c-1.2-1.8-0.8-4.2,1-5.4l0,0c1.8-1.2,4.2-0.8,5.4,0.9
			c0,0,0,0,0,0l23.3,33.1C55,44.4,54.6,46.8,52.8,48.1z"/>
		<path class="st0" d="M1.7,48.1L1.7,48.1c1.8,1.2,4.2,0.8,5.4-0.9c0,0,0,0,0,0L30.4,14c1.2-1.8,0.8-4.2-1-5.4l0,0
			c-1.8-1.2-4.2-0.8-5.4,1c0,0,0,0,0,0L0.7,42.6C-0.5,44.4-0.1,46.8,1.7,48.1z"/>
		<path class="st0" d="M25,48.1L25,48.1c1.8,1.2,4.2,0.8,5.4-0.9c0,0,0,0,0,0l11.7-16.6c1.2-1.8,0.8-4.2-1-5.4l0,0
			c-1.8-1.2-4.2-0.8-5.4,0.9c0,0,0,0,0,0L24.1,42.6C22.8,44.4,23.3,46.8,25,48.1z"/>
		<path class="st0" d="M29.5,48.1L29.5,48.1c-1.8,1.2-4.2,0.8-5.4-0.9c0,0,0,0,0,0L12.4,30.6c-1.2-1.8-0.8-4.2,0.9-5.4l0,0
			c1.8-1.2,4.2-0.8,5.4,1l11.6,16.6C31.6,44.4,31.2,46.8,29.5,48.1z"/>
		<text transform="matrix(1 0 0 1 56.96 47.7469)" class="st0 st1 st2">a</text>
		<text transform="matrix(1 0 0 1 87.46 47.7469)" class="st0 st1 st2 st3">r</text>
		<text transform="matrix(1 0 0 1 109.66 47.7469)" class="st0 st1 st2">o</text>
		<text transform="matrix(1 0 0 1 141.6 47.7469)" class="st0 st1 st2">n</text>
		<text transform="matrix(1 0 0 1 180.8315 47.7469)" class="st4 st1 st2">s</text>
		<text transform="matrix(1 0 0 1 208.2115 47.7469)" class="st4 st1 st2">t</text>
		<text transform="matrix(1 0 0 1 231.8615 47.7469)" class="st4 st1 st2">u</text>
		<text transform="matrix(1 0 0 1 264.4215 47.7469)" class="st4 st1 st2">d</text>
		<text transform="matrix(1 0 0 1 298.4715 47.7469)" class="st4 st1 st2">i</text>
		<text transform="matrix(1 0 0 1 313.6715 47.7469)" class="st4 st1 st2">o</text>
	</g>
</g>
</svg>
