<?xml version="1.0" standalone="no"?><!DOCTYPE svg PUBLIC "-//W3C//DTD SVG 1.1//EN" "http://www.w3.org/Graphics/SVG/1.1/DTD/svg11.dtd"><svg t="1552109223585" class="icon" style="" viewBox="0 0 1024 1024" version="1.1" xmlns="http://www.w3.org/2000/svg" p-id="2534" xmlns:xlink="http://www.w3.org/1999/xlink" width="200" height="200"><defs><style type="text/css"></style></defs><path d="M890.024659 619.628276c-10.487865 0-21.0095-2.425236-30.79333-7.316639l-156.331511-78.165244c-16.98279-8.491395-23.862477-29.131481-15.371082-46.114271 8.473999-16.965393 29.097712-23.88806 46.11427-15.371082l156.331511 78.165244-0.705058-266.700201-155.576311 78.148871c-16.98279 8.499581-37.606503 1.678222-46.130643-15.278985-8.525164-16.965393-1.678222-37.622876 15.287171-46.13883l155.576311-78.157058c21.429055-10.756995 46.449915-9.682523 66.872037 2.886747 20.439518 12.56927 32.655747 34.392298 32.705889 58.380642l0.705058 266.682805c0.067538 24.030299-12.098549 45.938262-32.521694 58.59963-11.125385 6.897084-23.627117 10.378371-36.162618 10.378371z" fill="#444444" p-id="2535"></path><path d="M683.904185 726.791971H134.025483c-37.908378 0-68.734454-30.835286-68.734454-68.734454V176.913269c0-37.900192 30.827099-68.734454 68.734454-68.734454h549.878702c37.908378 0 68.734454 30.835286 68.734454 68.734454v481.144248c0 37.899168-30.827099 68.734454-68.734454 68.734454zM134.025483 176.913269v481.144248h549.928844l-0.050142-481.144248H134.025483z" fill="#444444" p-id="2536"></path><path d="M185.54281 915.821185a34.225499 34.225499 0 0 1-15.337313-3.62455c-16.98279-8.491395-23.862477-29.131481-15.371083-46.114271l85.918835-171.845856c8.473999-16.957207 29.115108-23.870664 46.114271-15.371083 16.98279 8.491395 23.862477 29.131481 15.371082 46.114271l-85.918835 171.845856c-6.025227 12.031011-18.157545 18.995633-30.776957 18.995633zM632.385834 915.821185c-12.619412 0-24.75173-6.947226-30.775934-18.995633l-85.918835-171.845856c-8.491395-16.98279-1.610684-37.622876 15.371083-46.114271 17.032932-8.499581 37.622876-1.586125 46.11427 15.371083l85.918835 171.845856c8.491395 16.98279 1.610684 37.622876-15.371082 46.114271a34.239825 34.239825 0 0 1-15.338337 3.62455z" fill="#444444" p-id="2537"></path><path d="M494.888274 511.998977H185.580672v51.551096c0 18.980283 15.386432 34.367739 34.367739 34.367739h240.572124c18.980283 0 34.367739-15.386432 34.367739-34.367739v-51.551096z" fill="#00D8A0" p-id="2538"></path></svg>